<?xml version="1.0" standalone="no"?>
<!DOCTYPE svg PUBLIC "-//W3C//DTD SVG 20010904//EN"
 "http://www.w3.org/TR/2001/REC-SVG-20010904/DTD/svg10.dtd">
<svg version="1.0" xmlns="http://www.w3.org/2000/svg"
 width="220.000000pt" height="220.000000pt" viewBox="0 0 220.000000 220.000000"
 preserveAspectRatio="xMidYMid meet">
<metadata>
Created by potrace 1.16, written by Peter Selinger 2001-2019
</metadata>
<g transform="translate(0.000000,220.000000) scale(0.100000,-0.100000)"
fill="#000000" stroke="none">
<path d="M657 2110 c-25 -16 -60 -48 -77 -71 -54 -75 -213 -370 -204 -379 5
-5 83 -50 174 -100 91 -51 188 -105 217 -121 l52 -30 163 288 c89 158 179 306
200 329 34 37 127 92 160 95 7 1 -5 5 -27 10 -22 4 -168 8 -326 8 l-285 1 -47
-30z"/>
<path d="M1315 2066 c-57 -26 -116 -88 -169 -177 -42 -70 -48 -47 60 -235 35
-61 64 -115 64 -120 0 -5 -25 -24 -55 -42 -30 -18 -57 -37 -60 -42 -4 -6 86
-10 247 -10 l253 0 113 206 c62 114 110 209 108 212 -3 3 -18 0 -33 -7 -16 -7
-49 -22 -75 -32 l-48 -19 -84 126 c-47 70 -97 135 -113 145 -42 28 -143 26
-208 -5z"/>
<path d="M30 1470 c1 -3 21 -21 46 -40 97 -74 95 -48 14 -204 -68 -128 -72
-141 -68 -187 6 -63 46 -122 111 -166 58 -39 130 -55 233 -51 l78 3 80 132
c45 72 84 134 88 138 3 4 36 -10 72 -30 36 -20 66 -33 66 -29 0 4 -52 105
-116 225 l-116 218 -244 -2 c-134 -1 -244 -4 -244 -7z"/>
<path d="M1713 1337 c-117 -73 -212 -136 -213 -140 0 -5 74 -128 164 -275 218
-355 201 -319 201 -434 0 -54 2 -98 5 -98 3 0 74 121 158 269 146 258 152 271
152 325 0 31 -8 78 -18 104 -19 50 -220 382 -231 382 -3 -1 -101 -60 -218
-133z"/>
<path d="M1324 835 c-102 -174 -206 -361 -207 -371 0 -9 219 -362 250 -403 8
-11 13 11 19 86 l7 81 101 7 c233 16 262 26 306 110 20 39 25 63 25 126 0 74
-2 82 -51 176 l-50 98 -172 -1 -172 -1 -5 31 c-3 17 -6 54 -7 81 l-3 50 -41
-70z"/>
<path d="M50 876 c0 -3 15 -31 33 -63 19 -32 87 -156 151 -275 81 -151 127
-224 147 -239 59 -42 109 -49 341 -49 l218 0 0 255 0 255 -308 0 c-180 0 -333
5 -367 11 -67 12 -137 45 -178 83 -27 25 -37 31 -37 22z"/>
</g>
</svg>
