<?xml version="1.0" standalone="no"?>
<!DOCTYPE svg PUBLIC "-//W3C//DTD SVG 20010904//EN"
 "http://www.w3.org/TR/2001/REC-SVG-20010904/DTD/svg10.dtd">
<svg version="1.0" xmlns="http://www.w3.org/2000/svg"
 width="400.000000pt" height="400.000000pt" viewBox="0 0 400.000000 400.000000"
 preserveAspectRatio="xMidYMid meet">
<metadata>
Created by potrace 1.16, written by Peter Selinger 2001-2019
</metadata>
<g transform="translate(0.000000,400.000000) scale(0.100000,-0.100000)"
fill="#000000" stroke="none">
<path d="M599 2023 c0 -973 -2 -1776 -4 -1786 -2 -9 1 -15 5 -12 5 3 639 5
1409 5 l1401 0 0 22 c0 476 0 3517 0 3526 0 9 -288 12 -1405 12 l-1405 0 -1
-1767z m2761 -15 l0 -1728 -1355 0 -1355 0 0 1728 0 1727 1355 0 1355 0 0
-1727z"/>
<path d="M665 2020 c0 -932 1 -1314 2 -848 2 467 2 1229 0 1696 -1 466 -2 84
-2 -848z"/>
<path d="M3345 2015 c0 -907 1 -1277 2 -822 2 456 2 1198 0 1650 -1 452 -2 80
-2 -828z"/>
<path d="M1988 2388 c2 -1037 1 -1123 -15 -1140 -16 -17 -44 -18 -605 -18
-498 1 -591 -2 -603 -14 -13 -12 -12 -15 1 -20 9 -3 569 -6 1245 -6 1099 0
1230 2 1236 15 3 9 3 18 1 21 -3 2 -273 4 -600 4 -328 0 -602 2 -609 5 -12 4
-14 188 -12 1140 l3 1135 -23 0 -22 0 3 -1122z"/>
<path d="M1090 3441 c0 -9 -23 -12 -77 -10 l-78 2 -3 -479 c-1 -263 1 -486 5
-494 3 -8 7 -34 8 -57 2 -24 7 -49 13 -55 6 -7 11 -17 11 -23 3 -25 15 -52 35
-74 12 -14 15 -21 6 -17 -8 4 -1 -4 15 -18 17 -14 34 -26 38 -26 15 0 58 -54
80 -100 20 -41 22 -64 25 -273 4 -207 2 -230 -15 -256 -25 -40 -81 -101 -91
-101 -5 0 -23 -13 -42 -30 -18 -16 -37 -27 -43 -23 -6 3 -7 1 -3 -5 3 -5 -10
-20 -29 -32 -19 -12 -35 -26 -35 -31 0 -5 142 -9 345 -9 190 0 345 4 345 9 0
4 -19 21 -42 36 -46 30 -94 76 -91 86 1 4 -5 5 -15 3 -17 -3 -107 92 -105 112
1 5 -3 15 -9 22 -7 8 -9 80 -4 222 7 207 14 258 37 286 6 8 9 14 5 14 -3 0 6
14 21 30 15 17 33 28 40 26 7 -3 12 0 10 7 -1 7 3 11 9 10 15 -3 41 27 46 52
2 11 11 19 19 17 8 -2 11 -1 7 3 -3 4 4 28 15 53 22 46 22 58 25 580 l3 532
-145 0 c-96 0 -146 4 -146 11 0 41 -44 -72 -45 -116 0 -5 -3 -12 -7 -16 -4 -3
-9 -19 -11 -36 -2 -18 -8 -38 -14 -45 -16 -20 -14 -70 3 -64 8 3 14 2 14 -2 0
-5 19 -12 43 -18 42 -9 46 -17 33 -59 -1 -5 -6 -22 -11 -37 -4 -16 -11 -28
-17 -28 -5 0 -8 -6 -7 -12 1 -7 -12 -44 -29 -82 -41 -88 -49 -118 -30 -111 8
3 24 -2 36 -12 l21 -18 -22 -45 c-29 -59 -53 -61 -49 -2 3 31 0 42 -10 42 -8
0 -23 7 -34 15 -19 15 -19 15 0 30 14 11 16 15 5 15 -11 0 -12 2 -1 9 8 4 13
12 12 17 -1 10 16 79 36 142 8 23 14 45 14 47 0 5 -57 36 -65 35 -3 0 -9 0
-15 0 -6 0 -10 63 -10 169 0 138 -3 171 -15 181 -11 9 -15 9 -15 1z"/>
<path d="M2483 2981 c-12 -10 -20 -21 -17 -24 7 -7 -39 -53 -49 -49 -5 1 -6
-2 -3 -7 7 -11 -50 -71 -60 -62 -4 3 -4 1 0 -6 3 -6 2 -14 -4 -18 -22 -14 -8
-25 33 -24 23 1 48 1 55 0 10 -1 12 -77 10 -381 l-3 -380 68 0 67 0 0 379 c0
420 -5 393 69 385 36 -4 40 -3 34 13 -3 10 -12 25 -20 34 -7 9 -10 19 -6 24 5
4 2 5 -5 1 -8 -5 -36 17 -80 63 -67 70 -67 70 -89 52z"/>
<path d="M2951 2993 c3 -21 -2 -33 -16 -33 -8 0 -15 -5 -15 -11 0 -5 -4 -8 -9
-5 -5 3 -14 -8 -20 -25 -6 -17 -20 -33 -31 -36 -11 -3 -18 -9 -15 -13 2 -4 -7
-17 -20 -28 -37 -33 -32 -50 15 -50 22 0 40 4 40 10 0 6 7 5 16 -3 15 -12 16
-53 12 -391 l-4 -378 73 0 73 0 2 383 3 382 35 -2 c67 -4 65 4 -19 96 -45 49
-81 94 -81 100 0 6 -9 11 -20 11 -11 0 -19 -3 -19 -7z"/>
<path d="M2194 1981 c-2 -2 -4 -53 -4 -113 l0 -108 553 2 552 3 3 99 c3 110
-1 134 -21 118 -15 -13 -1017 -17 -1017 -5 0 8 -58 11 -66 4z"/>
<path d="M1708 892 c-43 -3 -49 -6 -54 -30 -3 -15 -10 -38 -16 -52 -52 -120
-76 -180 -72 -180 3 0 -1 -10 -8 -22 -7 -13 -13 -25 -13 -28 -4 -22 -20 -56
-29 -62 -17 -11 -26 -10 -26 5 0 7 -11 24 -25 39 -14 15 -25 31 -25 36 0 6 -7
13 -16 16 -8 3 -12 10 -9 16 3 5 1 10 -6 10 -7 0 1 11 16 24 16 14 33 23 37
20 5 -3 7 -2 6 3 -1 4 4 25 11 46 7 21 9 46 5 55 -4 9 -8 23 -10 30 -3 17 0
14 -48 46 -37 25 -45 26 -167 26 l-129 0 0 -216 0 -215 53 3 52 3 3 83 c3 79
4 82 27 82 25 0 81 -61 103 -112 6 -16 16 -28 22 -28 5 0 10 -7 10 -15 0 -13
16 -15 102 -13 l101 3 17 49 c17 52 36 68 51 45 6 -10 9 -11 9 -1 0 17 81 16
106 -3 10 -8 15 -15 11 -15 -5 0 -1 -7 7 -16 9 -8 14 -19 11 -24 -3 -5 -1 -11
5 -15 6 -4 8 -11 5 -16 -4 -5 17 -9 49 -9 l54 0 -10 38 c-5 20 -19 57 -30 82
-34 74 -39 87 -54 155 -4 16 -2 14 10 -5 9 -14 15 -20 15 -15 1 17 -17 40 -31
40 -7 0 -24 30 -38 67 -15 37 -28 69 -31 70 -2 2 -25 2 -51 0z"/>
<path d="M2073 881 c-23 -10 -43 -17 -46 -15 -3 3 -15 -11 -27 -31 -12 -19
-27 -32 -32 -29 -6 4 -8 2 -5 -3 4 -6 0 -30 -9 -54 -26 -72 -1 -183 47 -217
21 -15 26 -37 7 -26 -7 4 -9 3 -5 -1 4 -5 14 -10 22 -11 8 -1 28 -9 45 -18 17
-8 38 -12 46 -9 7 3 14 0 14 -6 0 -13 46 -15 54 -2 3 5 15 7 26 4 12 -3 20 0
20 6 0 7 4 10 9 6 11 -6 80 29 96 49 6 7 9 50 7 94 l-4 82 -78 0 c-43 0 -85 3
-94 6 -13 5 -16 -2 -16 -40 l0 -46 45 0 c33 0 47 -5 52 -16 9 -24 -25 -48 -44
-32 -11 9 -13 8 -11 -3 2 -10 -9 -15 -37 -17 -35 -3 -45 2 -75 33 -31 32 -34
41 -35 96 0 39 5 63 13 68 8 5 14 12 14 17 1 21 28 46 42 41 9 -4 16 -2 16 3
0 6 9 10 20 10 11 0 20 -5 20 -11 0 -6 6 -9 13 -6 6 2 24 -9 39 -24 31 -32 40
-35 86 -24 37 9 38 11 16 54 -38 76 -164 113 -251 72z"/>
<path d="M2565 883 c-3 -8 -5 -107 -5 -219 l0 -204 155 0 155 0 0 45 0 45
-102 0 -103 0 0 164 c0 91 -3 167 -5 170 -3 2 -24 6 -47 9 -30 3 -44 0 -48
-10z"/>
<path d="M2915 892 c-2 -2 -4 -100 -5 -218 l-1 -214 166 0 165 0 0 45 0 45
-113 0 -113 0 6 48 5 47 98 3 97 3 0 34 c0 18 -4 36 -8 39 -5 3 -50 6 -100 7
l-92 2 0 36 0 36 104 -2 104 -2 4 40 c2 22 0 43 -4 45 -9 6 -308 11 -313 6z"/>
<path d="M780 674 l0 -215 53 3 52 3 -2 94 -2 93 89 -4 90 -4 0 41 0 40 -66
-3 c-99 -5 -110 -1 -106 45 l4 39 94 -1 94 0 0 43 0 42 -150 0 -150 0 0 -216z"/>
<path d="M2400 674 l0 -215 48 3 47 3 3 213 2 212 -50 0 -50 0 0 -216z"/>
</g>
</svg>
