<?xml version="1.0" standalone="no"?>
<!DOCTYPE svg PUBLIC "-//W3C//DTD SVG 20010904//EN"
 "http://www.w3.org/TR/2001/REC-SVG-20010904/DTD/svg10.dtd">
<svg version="1.0" xmlns="http://www.w3.org/2000/svg"
 width="299.000000pt" height="299.000000pt" viewBox="0 0 299.000000 299.000000"
 preserveAspectRatio="xMidYMid meet">
<metadata>
Created by potrace 1.16, written by Peter Selinger 2001-2019
</metadata>
<g transform="translate(0.000000,299.000000) scale(0.100000,-0.100000)"
fill="#000000" stroke="none">
<path d="M258 2976 c-98 -35 -175 -102 -225 -198 l-28 -53 0 -1230 0 -1230 34
-63 c39 -72 97 -129 173 -169 l53 -28 1230 0 1230 0 63 34 c72 39 129 97 169
173 l28 53 0 1230 0 1230 -28 53 c-40 76 -97 134 -169 173 l-63 34 -1215 2
c-983 2 -1222 0 -1252 -11z m2426 -148 c54 -16 128 -90 144 -144 17 -60 17
-2318 0 -2378 -16 -54 -90 -128 -144 -144 -60 -17 -2318 -17 -2378 0 -54 16
-128 90 -144 144 -17 60 -17 2318 0 2378 15 50 89 127 138 143 53 17 2328 17
2384 1z"/>
<path d="M1485 2533 c-120 -80 -204 -176 -261 -300 -55 -116 -67 -186 -61
-353 6 -154 21 -231 71 -349 15 -35 25 -65 23 -67 -2 -3 -25 16 -51 41 -48 46
-96 132 -96 173 0 86 -146 -96 -191 -238 -11 -36 -23 -108 -26 -161 -10 -167
28 -267 141 -377 67 -66 156 -122 191 -122 13 0 15 7 11 28 -13 63 -26 159
-26 193 0 47 26 131 49 160 l18 22 22 -73 c30 -96 71 -178 114 -224 37 -38 75
-50 62 -18 -4 9 -13 49 -22 87 -19 89 -6 186 38 288 40 94 56 205 42 283 -6
33 -10 60 -9 61 1 1 34 -25 74 -58 124 -103 214 -236 249 -372 20 -79 13 -218
-16 -301 -25 -71 -25 -66 -6 -66 22 0 97 72 151 144 148 196 181 396 100 597
-45 112 -89 170 -247 328 -172 173 -262 294 -301 410 -29 86 -29 172 0 232 12
25 22 48 22 52 0 14 -27 6 -65 -20z"/>
<path d="M870 550 l0 -110 630 0 630 0 0 110 0 110 -630 0 -630 0 0 -110z"/>
</g>
</svg>
