<?xml version="1.0" standalone="no"?>
<!DOCTYPE svg PUBLIC "-//W3C//DTD SVG 20010904//EN"
 "http://www.w3.org/TR/2001/REC-SVG-20010904/DTD/svg10.dtd">
<svg version="1.0" xmlns="http://www.w3.org/2000/svg"
 width="512.000000pt" height="512.000000pt" viewBox="0 0 512.000000 512.000000"
 preserveAspectRatio="xMidYMid meet">
<metadata>
Created by potrace 1.16, written by Peter Selinger 2001-2019
</metadata>
<g transform="translate(0.000000,512.000000) scale(0.100000,-0.100000)"
fill="#000000" stroke="none">
<path d="M2491 4958 c-149 -13 -150 -14 -121 -315 22 -236 32 -284 65 -297 23
-9 132 -7 185 3 89 18 92 36 60 360 -26 263 -26 264 -189 249z"/>
<path d="M3267 4869 c-21 -19 -39 -66 -92 -243 -36 -120 -65 -232 -65 -248 0
-48 43 -81 139 -107 95 -26 131 -19 155 28 22 44 136 438 136 471 0 43 -35 74
-106 95 -101 30 -137 31 -167 4z"/>
<path d="M1622 4704 c-80 -40 -112 -73 -112 -117 0 -35 189 -407 228 -449 35
-38 73 -36 160 8 77 38 112 73 112 111 0 33 -205 432 -236 461 -35 31 -70 28
-152 -14z"/>
<path d="M4072 4493 c-7 -2 -80 -90 -162 -195 -133 -167 -150 -194 -150 -226
1 -45 10 -58 90 -122 69 -55 116 -65 156 -32 12 9 85 97 163 195 119 149 141
183 141 211 0 52 -7 63 -82 121 -57 45 -77 55 -107 54 -20 0 -42 -3 -49 -6z"/>
<path d="M746 3932 c-89 -86 -293 -286 -453 -444 l-293 -287 0 -45 c0 -63 21
-76 203 -126 l153 -43 -13 -81 c-20 -129 -27 -424 -14 -566 39 -401 171 -776
391 -1108 237 -359 565 -647 945 -833 684 -333 1456 -325 2137 22 218 112 420
257 597 432 274 269 477 584 602 932 43 121 99 323 99 359 0 39 -21 70 -57 84
-53 21 -423 122 -447 122 -45 0 -82 -43 -100 -117 -127 -505 -405 -907 -811
-1173 -178 -116 -415 -212 -645 -262 -90 -19 -136 -22 -320 -22 -183 -1 -232
3 -325 22 -685 137 -1212 627 -1399 1301 -30 105 -53 252 -62 387 -8 118 12
338 30 331 6 -2 73 -21 149 -42 133 -37 140 -37 172 -22 69 33 72 16 -100 687
-171 667 -165 650 -242 650 -33 0 -50 -13 -197 -158z"/>
<path d="M4685 3842 c-49 -16 -407 -226 -425 -249 -29 -37 -25 -69 19 -148 79
-142 87 -142 350 5 111 62 211 124 222 138 10 14 19 36 19 51 0 29 -68 157
-96 183 -23 20 -62 29 -89 20z"/>
<path d="M2013 3015 c-120 -27 -229 -102 -302 -209 -18 -26 -29 -51 -25 -56 5
-4 47 -32 93 -63 l83 -55 62 63 c51 52 72 66 120 80 74 22 131 14 186 -26 47
-34 70 -80 70 -139 0 -80 -49 -141 -206 -255 -249 -182 -303 -235 -359 -350
-41 -83 -59 -184 -50 -277 l7 -68 449 0 449 0 0 110 0 110 -310 0 -310 0 0 24
c0 54 76 126 291 276 226 158 300 269 300 450 0 183 -98 317 -271 371 -84 26
-201 32 -277 14z"/>
<path d="M3217 2903 c-41 -60 -171 -251 -290 -425 l-217 -317 0 -76 0 -75 315
0 315 0 0 -175 0 -175 120 0 120 0 0 175 0 175 90 0 90 0 0 105 0 105 -90 0
-90 0 0 395 0 395 -144 0 -145 0 -74 -107z m123 -428 l0 -255 -175 0 c-96 0
-175 2 -175 5 0 2 71 103 158 224 87 120 164 233 171 250 8 17 15 31 17 31 2
0 4 -115 4 -255z"/>
<path d="M4766 2985 c-231 -32 -232 -32 -256 -63 -19 -24 -21 -35 -15 -92 15
-150 34 -180 112 -180 77 0 436 50 470 65 41 18 48 44 39 147 -7 82 -14 104
-42 132 -21 22 -98 19 -308 -9z"/>
</g>
</svg>
