<?xml version="1.0" standalone="no"?>
<!DOCTYPE svg PUBLIC "-//W3C//DTD SVG 20010904//EN"
 "http://www.w3.org/TR/2001/REC-SVG-20010904/DTD/svg10.dtd">
<svg version="1.0" xmlns="http://www.w3.org/2000/svg"
 width="299.000000pt" height="299.000000pt" viewBox="0 0 299.000000 299.000000"
 preserveAspectRatio="xMidYMid meet">
<metadata>
Created by potrace 1.16, written by Peter Selinger 2001-2019
</metadata>
<g transform="translate(0.000000,299.000000) scale(0.100000,-0.100000)"
fill="#000000" stroke="none">
<path d="M258 2976 c-98 -35 -175 -102 -225 -198 l-28 -53 0 -1230 0 -1230 34
-63 c39 -72 97 -129 173 -169 l53 -28 1230 0 1230 0 63 34 c72 39 129 97 169
173 l28 53 0 1230 0 1230 -28 53 c-40 76 -97 134 -169 173 l-63 34 -1215 2
c-983 2 -1222 0 -1252 -11z m2426 -148 c54 -16 128 -90 144 -144 17 -60 17
-2318 0 -2378 -16 -54 -90 -128 -144 -144 -60 -17 -2318 -17 -2378 0 -54 16
-128 90 -144 144 -17 60 -17 2318 0 2378 15 50 89 127 138 143 53 17 2328 17
2384 1z"/>
<path d="M2203 2690 c-71 -58 -83 -75 -83 -123 0 -43 26 -67 71 -67 62 1 82
29 99 142 17 117 6 123 -87 48z"/>
<path d="M2515 2529 c-79 -63 -95 -85 -95 -130 0 -71 53 -98 117 -60 25 16 33
30 42 73 6 29 12 75 14 103 3 64 -12 67 -78 14z"/>
<path d="M1840 2453 c-71 -59 -79 -71 -80 -113 0 -51 23 -80 65 -80 57 0 83
32 100 123 8 43 15 87 15 98 0 33 -41 21 -100 -28z"/>
<path d="M2168 2303 c-91 -73 -108 -95 -108 -138 0 -52 23 -75 72 -75 55 0 81
38 97 139 16 110 3 126 -61 74z"/>
<path d="M1435 2182 c-32 -7 -55 -33 -55 -63 0 -25 -4 -28 -52 -34 -149 -20
-345 -104 -462 -197 -100 -80 -179 -182 -223 -291 -22 -55 -50 -204 -39 -214
3 -3 18 4 33 15 65 46 134 47 208 4 l32 -20 43 29 c67 45 137 41 220 -14 24
-15 27 -15 69 13 33 23 55 30 92 30 87 0 79 47 79 -495 0 -426 -2 -485 -16
-499 -35 -36 -54 -4 -54 92 0 81 -18 106 -77 106 -58 0 -73 -28 -73 -134 0
-99 9 -132 48 -174 36 -38 81 -56 139 -56 60 0 108 24 147 73 l31 39 5 521 5
522 66 0 c56 0 71 -4 102 -28 l36 -27 50 31 c45 28 56 31 110 27 45 -3 68 -11
95 -31 l36 -28 28 21 c61 45 134 45 207 0 l35 -22 0 49 c0 119 -67 265 -171
377 -134 144 -319 241 -526 276 -62 10 -73 15 -73 32 0 45 -47 80 -95 70z"/>
<path d="M2419 2089 c-35 -28 -69 -61 -76 -72 -31 -55 3 -127 58 -127 51 0 84
43 99 127 13 78 11 114 -6 120 -6 2 -40 -19 -75 -48z"/>
</g>
</svg>
