<?xml version="1.0" standalone="no"?>
<!DOCTYPE svg PUBLIC "-//W3C//DTD SVG 20010904//EN"
 "http://www.w3.org/TR/2001/REC-SVG-20010904/DTD/svg10.dtd">
<svg version="1.0" xmlns="http://www.w3.org/2000/svg"
 width="512.000000pt" height="512.000000pt" viewBox="0 0 512.000000 512.000000"
 preserveAspectRatio="xMidYMid meet">
<metadata>
Created by potrace 1.16, written by Peter Selinger 2001-2019
</metadata>
<g transform="translate(0.000000,512.000000) scale(0.100000,-0.100000)"
fill="#000000" stroke="none">
<path d="M870 3945 c-112 -30 -279 -131 -308 -185 -8 -15 -11 -46 -9 -78 3
-43 9 -59 33 -82 16 -16 256 -176 534 -355 278 -180 513 -333 523 -340 16 -11
1 -22 -130 -90 -81 -43 -234 -127 -339 -186 -106 -60 -198 -109 -205 -109 -8
0 -129 61 -269 136 -140 74 -277 145 -305 156 -109 46 -287 18 -362 -58 -29
-28 -33 -38 -33 -86 0 -51 8 -69 154 -328 l154 -275 -67 -70 c-81 -83 -101
-119 -101 -178 0 -169 248 -240 605 -172 827 155 1992 478 2785 770 904 334
1411 635 1560 925 28 53 38 173 21 236 -13 50 -78 126 -134 158 -23 13 -71 33
-107 45 l-66 21 -402 -185 c-221 -102 -405 -185 -409 -185 -9 0 4 151 14 160
4 4 121 58 258 120 138 61 254 116 260 121 10 10 -124 16 -265 11 -251 -7
-607 -99 -1112 -288 l-197 -73 -893 236 -893 237 -120 3 c-83 2 -137 -2 -175
-12z"/>
<path d="M3461 2232 c-510 -181 -522 -187 -507 -246 3 -14 75 -104 159 -199
83 -96 233 -266 332 -379 99 -113 194 -215 211 -227 49 -34 110 -29 208 19
164 80 255 214 256 375 0 33 -18 220 -41 415 -45 392 -48 403 -110 407 -23 2
-190 -53 -508 -165z"/>
</g>
</svg>
