<?xml version="1.0" standalone="no"?>
<!DOCTYPE svg PUBLIC "-//W3C//DTD SVG 20010904//EN"
 "http://www.w3.org/TR/2001/REC-SVG-20010904/DTD/svg10.dtd">
<svg version="1.0" xmlns="http://www.w3.org/2000/svg"
 width="512.000000pt" height="512.000000pt" viewBox="0 0 512.000000 512.000000"
 preserveAspectRatio="xMidYMid meet">
<metadata>
Created by potrace 1.16, written by Peter Selinger 2001-2019
</metadata>
<g transform="translate(0.000000,512.000000) scale(0.100000,-0.100000)"
fill="#000000" stroke="none">
<path d="M656 5105 c-206 -57 -367 -230 -412 -445 -30 -143 3 -314 70 -365 62
-47 142 -45 201 6 49 44 60 85 45 174 -16 94 -7 152 33 212 66 97 173 140 278
110 62 -18 116 -56 149 -105 13 -18 263 -759 570 -1690 l547 -1657 124 0 c68
-1 143 -4 167 -9 29 -6 42 -5 42 3 0 30 -1125 3416 -1155 3478 -65 131 -202
242 -354 287 -67 20 -235 20 -305 1z"/>
<path d="M3093 3821 c-546 -181 -999 -334 -1007 -340 -39 -33 -35 -48 218
-813 134 -409 277 -841 316 -961 74 -227 91 -257 141 -257 14 0 471 147 1015
326 1036 341 1034 340 1034 396 0 11 -142 451 -315 977 -333 1009 -330 1002
-388 1000 -12 0 -469 -148 -1014 -328z m483 -647 c175 -96 322 -178 326 -182
3 -4 -16 -45 -43 -92 -26 -47 -50 -89 -52 -94 -1 -4 -65 26 -141 68 -76 42
-142 76 -146 74 -4 -2 48 -170 115 -375 l122 -372 -106 -36 c-58 -19 -109 -35
-113 -35 -3 0 -62 167 -130 370 -67 204 -126 370 -129 370 -3 0 -34 -62 -69
-137 -34 -76 -66 -141 -69 -145 -10 -12 -196 79 -193 94 3 11 99 223 279 616
14 28 26 52 27 52 1 0 146 -79 322 -176z"/>
<path d="M3905 1455 c-440 -146 -858 -284 -930 -306 -71 -23 -131 -43 -133
-44 -2 -2 21 -38 50 -81 30 -44 65 -106 78 -139 13 -33 24 -61 25 -62 3 -6
1791 589 1819 605 34 19 76 92 76 132 0 49 -42 113 -90 138 -24 12 -56 22 -70
22 -14 0 -385 -120 -825 -265z"/>
<path d="M2195 1203 c-146 -19 -302 -108 -389 -222 -91 -118 -130 -228 -130
-371 -1 -182 52 -311 178 -435 126 -125 248 -175 424 -175 173 0 306 55 428
175 119 118 175 257 175 429 0 174 -52 299 -175 422 -60 60 -100 90 -156 118
-108 52 -239 74 -355 59z m212 -339 c99 -47 161 -148 162 -265 1 -54 -4 -77
-30 -127 -50 -101 -129 -152 -245 -160 -62 -4 -79 -1 -133 23 -183 82 -233
308 -102 458 91 103 223 130 348 71z"/>
</g>
</svg>
