<?xml version="1.0" standalone="no"?>
<!DOCTYPE svg PUBLIC "-//W3C//DTD SVG 20010904//EN"
 "http://www.w3.org/TR/2001/REC-SVG-20010904/DTD/svg10.dtd">
<svg version="1.0" xmlns="http://www.w3.org/2000/svg"
 width="299.000000pt" height="299.000000pt" viewBox="0 0 299.000000 299.000000"
 preserveAspectRatio="xMidYMid meet">
<metadata>
Created by potrace 1.16, written by Peter Selinger 2001-2019
</metadata>
<g transform="translate(0.000000,299.000000) scale(0.100000,-0.100000)"
fill="#000000" stroke="none">
<path d="M258 2976 c-98 -35 -175 -102 -225 -198 l-28 -53 0 -1230 0 -1230 34
-63 c39 -72 97 -129 173 -169 l53 -28 1230 0 1230 0 63 34 c72 39 129 97 169
173 l28 53 0 1230 0 1230 -28 53 c-40 76 -97 134 -169 173 l-63 34 -1215 2
c-983 2 -1222 0 -1252 -11z m2426 -148 c54 -16 128 -90 144 -144 17 -60 17
-2318 0 -2378 -16 -54 -90 -128 -144 -144 -60 -17 -2318 -17 -2378 0 -54 16
-128 90 -144 144 -17 60 -17 2318 0 2378 15 50 89 127 138 143 53 17 2328 17
2384 1z"/>
<path d="M930 2262 c0 -282 8 -386 41 -517 41 -161 132 -301 236 -362 52 -30
153 -63 194 -63 l29 0 0 -370 0 -371 -24 -23 c-14 -15 -45 -28 -82 -35 -120
-24 -234 -74 -234 -104 0 -4 182 -7 405 -7 223 0 405 3 405 7 0 30 -114 80
-234 104 -37 7 -68 20 -82 35 l-24 23 0 371 0 370 29 0 c41 0 142 33 194 63
104 61 195 201 236 362 33 131 41 235 41 517 l0 268 -565 0 -565 0 0 -268z
m360 99 c-33 -84 -60 -157 -60 -161 0 -5 63 -11 139 -12 l139 -3 -236 -262
c-130 -143 -238 -260 -239 -259 -2 2 46 92 107 202 60 109 110 202 110 206 0
4 -57 9 -126 10 l-126 3 173 217 c96 119 175 216 176 214 1 -1 -24 -71 -57
-155z"/>
</g>
</svg>
